<svg xmlns="http://www.w3.org/2000/svg" xmlns:xlink="http://www.w3.org/1999/xlink" width="500" zoomAndPan="magnify" viewBox="0 0 375 374.999991" height="500" preserveAspectRatio="xMidYMid meet" version="1.0"><defs><g/></defs><path fill="#ffffff" d="M 102.632812 370.101562 C 101.839844 370.101562 101.023438 370.019531 100.195312 369.855469 C 98.746094 369.570312 97.375 368.898438 95.996094 367.800781 L 93.644531 365.917969 C 91.265625 364.011719 88.804688 362.042969 86.363281 360.132812 C 63.339844 342.167969 40.308594 324.210938 17.28125 306.257812 L 16.980469 306.027344 C 15.789062 305.101562 14.660156 304.226562 13.785156 303.007812 C 12.679688 301.480469 12.078125 299.738281 11.9375 297.6875 C 11.753906 295.011719 12.03125 292.238281 12.78125 289.207031 C 15.230469 279.335938 18.007812 268.144531 22.511719 257.628906 C 24.058594 254.019531 25.804688 250.246094 28.675781 247.222656 C 29.472656 246.382812 30.328125 245.5625 31.152344 244.769531 C 31.621094 244.324219 32.085938 243.875 32.542969 243.421875 C 33.132812 242.84375 33.71875 242.257812 34.300781 241.671875 C 35 240.972656 35.695312 240.277344 36.398438 239.585938 C 49.320312 226.910156 62.246094 214.234375 75.179688 201.566406 C 75.371094 201.378906 75.617188 201.21875 75.902344 201.035156 C 76.058594 200.933594 76.226562 200.824219 76.402344 200.703125 C 76.507812 200.628906 76.570312 200.511719 76.578125 200.382812 C 76.585938 200.253906 76.53125 200.128906 76.433594 200.042969 C 76.210938 199.851562 76.023438 199.691406 75.859375 199.546875 C 75.566406 199.289062 75.332031 199.085938 75.089844 198.894531 C 54.648438 182.957031 34.210938 167.019531 13.765625 151.085938 C 12.664062 150.226562 11.554688 149.371094 10.445312 148.511719 C 8.546875 147.046875 6.578125 145.527344 4.667969 144.007812 C 2.199219 142.046875 0.894531 139.660156 0.683594 136.707031 C 0.476562 133.816406 0.792969 130.75 1.648438 127.34375 L 1.949219 126.140625 C 3.765625 118.886719 5.648438 111.382812 8.238281 104.234375 C 9.28125 101.34375 10.476562 98.445312 11.628906 95.644531 L 12.292969 94.023438 C 13.925781 90.035156 16.550781 86.460938 20.550781 82.769531 C 21.90625 81.523438 23.238281 80.210938 24.523438 78.941406 L 25.582031 77.898438 C 40.730469 63.046875 55.875 48.195312 71.019531 33.335938 C 71.523438 32.84375 72.019531 32.339844 72.515625 31.835938 C 72.988281 31.355469 73.464844 30.871094 73.945312 30.398438 C 76.566406 27.824219 79.753906 26.460938 83.164062 26.460938 C 85.128906 26.460938 87.09375 26.917969 89.003906 27.820312 C 90.195312 28.382812 91.375 29.074219 92.503906 29.878906 C 106.726562 39.984375 120.941406 50.101562 135.152344 60.222656 L 150.046875 70.824219 C 150.394531 71.074219 150.753906 71.308594 151.113281 71.546875 C 151.335938 71.691406 151.554688 71.835938 151.773438 71.984375 C 153.414062 73.097656 154.808594 74.488281 156.046875 76.238281 C 158.589844 79.84375 160.773438 83.757812 162.882812 87.542969 C 163.992188 89.535156 165.140625 91.59375 166.328125 93.585938 C 167.507812 95.5625 168.664062 97.605469 169.78125 99.578125 C 170.347656 100.574219 170.914062 101.574219 171.484375 102.566406 C 171.628906 102.816406 171.78125 103.058594 171.960938 103.339844 C 172.046875 103.476562 172.140625 103.621094 172.242188 103.785156 C 172.308594 103.894531 172.421875 103.964844 172.550781 103.976562 C 172.566406 103.980469 172.582031 103.980469 172.597656 103.980469 C 172.707031 103.980469 172.8125 103.9375 172.890625 103.859375 C 173.25 103.5 173.605469 103.152344 173.953125 102.804688 C 174.714844 102.050781 175.4375 101.335938 176.148438 100.589844 C 178.023438 98.625 179.820312 97.386719 181.796875 96.691406 C 183.226562 96.1875 184.675781 95.933594 186.113281 95.933594 C 188.042969 95.933594 190.003906 96.390625 191.933594 97.292969 C 192.898438 97.742188 193.828125 98.339844 194.726562 98.914062 C 195.078125 99.140625 195.429688 99.363281 195.78125 99.582031 C 196.03125 99.734375 196.273438 99.917969 196.554688 100.132812 C 196.707031 100.246094 196.871094 100.371094 197.054688 100.503906 C 197.125 100.558594 197.214844 100.585938 197.300781 100.585938 C 197.34375 100.585938 197.390625 100.578125 197.433594 100.5625 C 197.5625 100.519531 197.664062 100.417969 197.699219 100.285156 C 197.777344 100.023438 197.855469 99.773438 197.929688 99.535156 C 198.078125 99.042969 198.21875 98.582031 198.339844 98.117188 C 200.609375 89.226562 202.984375 81.980469 205.816406 75.3125 C 207.3125 71.78125 209.007812 68.082031 211.792969 65.089844 C 212.652344 64.164062 213.582031 63.269531 214.480469 62.402344 C 214.929688 61.964844 215.378906 61.53125 215.824219 61.089844 C 216.289062 60.628906 216.753906 60.167969 217.214844 59.703125 C 217.851562 59.066406 218.488281 58.433594 219.128906 57.804688 C 219.128906 57.804688 256.601562 21.050781 265.210938 12.605469 C 265.792969 12.035156 266.363281 11.457031 266.9375 10.878906 C 267.457031 10.351562 267.980469 9.824219 268.507812 9.304688 C 271.140625 6.707031 274.332031 5.335938 277.730469 5.335938 C 279.644531 5.335938 281.566406 5.773438 283.445312 6.632812 C 284.679688 7.195312 285.898438 7.898438 287.066406 8.730469 C 301.332031 18.863281 315.585938 29.011719 329.839844 39.160156 L 344.609375 49.671875 C 344.972656 49.929688 345.339844 50.175781 345.710938 50.421875 C 346.097656 50.679688 346.484375 50.933594 346.859375 51.203125 C 348.234375 52.191406 349.460938 53.460938 350.621094 55.085938 C 353.246094 58.773438 355.484375 62.796875 357.644531 66.6875 C 358.613281 68.425781 359.613281 70.226562 360.640625 71.976562 C 363.472656 76.808594 366.289062 81.761719 369.019531 86.550781 C 370.175781 88.585938 371.335938 90.617188 372.496094 92.648438 C 373.859375 95.03125 374.464844 97.148438 374.394531 99.316406 C 374.304688 102.367188 373.28125 104.832031 371.273438 106.84375 C 362.332031 115.804688 353.390625 124.769531 344.457031 133.742188 C 328.878906 149.386719 313.304688 165.03125 297.734375 180.6875 C 297.316406 181.109375 296.921875 181.558594 296.542969 181.996094 C 296.144531 182.457031 295.734375 182.929688 295.300781 183.359375 C 292.296875 186.3125 289.210938 187.75 285.863281 187.75 C 285.253906 187.75 284.625 187.699219 283.996094 187.605469 C 283.792969 187.574219 283.597656 187.566406 283.40625 187.558594 C 283.40625 187.558594 283.3125 187.554688 283.308594 187.554688 C 283.148438 187.554688 283.050781 187.617188 282.980469 187.660156 C 282.953125 187.679688 282.914062 187.703125 282.859375 187.734375 C 282.707031 187.820312 282.625 187.992188 282.648438 188.164062 C 282.867188 189.554688 282.773438 190.976562 282.359375 192.644531 C 281.902344 194.476562 281.003906 196.046875 279.609375 197.445312 C 264.269531 212.847656 204.972656 272.382812 204.972656 272.382812 C 204.636719 272.71875 204.308594 273.066406 203.984375 273.414062 C 203.238281 274.210938 202.464844 275.03125 201.609375 275.683594 C 199.273438 277.464844 196.808594 278.367188 194.273438 278.367188 C 193.480469 278.367188 192.667969 278.277344 191.851562 278.105469 C 191.785156 278.089844 191.710938 278.082031 191.625 278.082031 C 191.582031 278.082031 191.53125 278.085938 191.480469 278.085938 C 191.433594 278.089844 191.378906 278.09375 191.316406 278.09375 C 191.085938 278.09375 190.898438 278.28125 190.898438 278.511719 C 190.898438 278.601562 190.894531 278.6875 190.894531 278.777344 C 190.886719 278.988281 190.875 279.203125 190.910156 279.429688 C 191.503906 283.464844 190.390625 286.8125 187.507812 289.667969 C 181.824219 295.296875 176.089844 301.070312 170.546875 306.652344 C 168.449219 308.761719 166.355469 310.871094 164.257812 312.976562 C 147.550781 329.757812 130.847656 346.535156 114.152344 363.320312 C 113.789062 363.6875 113.449219 364.078125 113.117188 364.453125 C 112.832031 364.78125 112.539062 365.121094 112.234375 365.433594 C 109.195312 368.574219 106.054688 370.101562 102.632812 370.101562 Z M 102.632812 370.101562 " fill-opacity="1" fill-rule="nonzero"/><path fill="#9f20ef" d="M 372.859375 92.441406 C 368.910156 85.546875 365.011719 78.621094 360.996094 71.765625 C 357.683594 66.105469 354.773438 60.207031 350.957031 54.84375 C 349.867188 53.308594 348.621094 51.957031 347.101562 50.867188 C 346.363281 50.335938 345.589844 49.859375 344.851562 49.335938 C 325.671875 35.683594 306.5 22.023438 287.308594 8.390625 C 286.152344 7.570312 284.90625 6.839844 283.621094 6.253906 C 278.167969 3.761719 272.476562 4.808594 268.214844 9.007812 C 267.105469 10.101562 266.027344 11.21875 264.917969 12.308594 C 249.558594 27.375 234.195312 42.441406 218.835938 57.507812 C 217.726562 58.59375 216.632812 59.703125 215.527344 60.796875 C 214.179688 62.132812 212.773438 63.414062 211.484375 64.804688 C 208.699219 67.796875 207 71.4375 205.425781 75.148438 C 202.285156 82.558594 199.921875 90.222656 197.933594 98.011719 C 197.757812 98.695312 197.535156 99.363281 197.296875 100.167969 C 196.761719 99.777344 196.398438 99.472656 196 99.226562 C 194.714844 98.4375 193.46875 97.550781 192.109375 96.917969 C 188.730469 95.335938 185.222656 95.042969 181.65625 96.296875 C 179.359375 97.105469 177.507812 98.5625 175.84375 100.304688 C 174.8125 101.386719 173.730469 102.425781 172.597656 103.5625 C 172.292969 103.082031 172.058594 102.726562 171.847656 102.359375 C 170.128906 99.363281 168.457031 96.339844 166.6875 93.371094 C 163.238281 87.589844 160.285156 81.519531 156.386719 76 C 155.171875 74.277344 153.742188 72.816406 152.011719 71.640625 C 151.4375 71.25 150.851562 70.882812 150.289062 70.484375 C 131.109375 56.832031 111.9375 43.175781 92.746094 29.539062 C 91.625 28.742188 90.425781 28.027344 89.179688 27.441406 C 83.738281 24.875 77.929688 25.894531 73.652344 30.101562 C 72.667969 31.074219 71.710938 32.070312 70.722656 33.039062 C 55.582031 47.894531 40.4375 62.75 25.289062 77.601562 C 23.625 79.234375 21.976562 80.886719 20.265625 82.464844 C 16.730469 85.726562 13.742188 89.378906 11.90625 93.867188 C 10.515625 97.261719 9.089844 100.644531 7.839844 104.089844 C 5.105469 111.652344 3.195312 119.457031 1.238281 127.242188 C 0.460938 130.335938 0.0351562 133.503906 0.265625 136.742188 C 0.496094 139.941406 1.96875 142.398438 4.40625 144.335938 C 7.414062 146.726562 10.476562 149.054688 13.507812 151.417969 C 33.949219 167.351562 54.390625 183.289062 74.832031 199.226562 C 75.191406 199.507812 75.53125 199.820312 76.160156 200.363281 C 75.65625 200.714844 75.21875 200.9375 74.882812 201.269531 C 61.953125 213.933594 49.027344 226.609375 36.105469 239.289062 C 34.8125 240.558594 33.542969 241.851562 32.25 243.125 C 30.960938 244.398438 29.617188 245.621094 28.371094 246.9375 C 25.496094 249.96875 23.75 253.679688 22.128906 257.464844 C 17.757812 267.667969 15.035156 278.378906 12.375 289.105469 C 11.679688 291.914062 11.320312 294.792969 11.519531 297.714844 C 11.65625 299.742188 12.230469 301.566406 13.445312 303.253906 C 14.433594 304.625 15.730469 305.582031 17.023438 306.589844 C 40.050781 324.542969 63.082031 342.5 86.101562 360.464844 C 89.335938 362.988281 92.527344 365.566406 95.734375 368.128906 C 97.039062 369.167969 98.46875 369.945312 100.113281 370.265625 C 105.164062 371.257812 109.128906 369.242188 112.53125 365.726562 C 113.191406 365.042969 113.773438 364.289062 114.441406 363.617188 C 131.140625 346.832031 147.84375 330.054688 164.550781 313.273438 C 172.292969 305.496094 180 297.6875 187.800781 289.964844 C 190.816406 286.980469 191.925781 283.496094 191.320312 279.371094 C 191.277344 279.09375 191.3125 278.808594 191.3125 278.511719 C 191.507812 278.511719 191.640625 278.492188 191.761719 278.515625 C 195.535156 279.324219 198.886719 278.285156 201.859375 276.015625 C 203.113281 275.058594 204.144531 273.804688 205.265625 272.679688 C 230.144531 247.699219 255.023438 222.71875 279.902344 197.742188 C 281.308594 196.332031 282.277344 194.683594 282.761719 192.746094 C 283.140625 191.222656 283.308594 189.691406 283.058594 188.101562 C 283.21875 188.011719 283.253906 187.972656 283.289062 187.976562 C 283.503906 187.984375 283.71875 187.988281 283.929688 188.019531 C 288.625 188.726562 292.355469 186.835938 295.589844 183.65625 C 296.449219 182.8125 297.179688 181.835938 298.027344 180.984375 C 313.597656 165.328125 329.171875 149.683594 344.75 134.039062 C 353.683594 125.066406 362.625 116.101562 371.566406 107.140625 C 373.722656 104.976562 374.71875 102.347656 374.8125 99.328125 C 374.890625 96.824219 374.078125 94.574219 372.859375 92.441406 Z M 213.050781 73.390625 C 213.472656 73.671875 213.785156 73.878906 214.160156 74.125 C 213.921875 74.894531 213.664062 75.617188 213.46875 76.359375 C 212.277344 80.949219 211.109375 85.542969 209.914062 90.132812 C 209.367188 92.21875 208.757812 94.285156 208.207031 96.371094 C 207.644531 98.496094 207.0625 100.617188 206.59375 102.765625 C 206.347656 103.890625 206.324219 105.066406 206.199219 106.214844 C 205.398438 106.007812 204.277344 105.273438 202.792969 103.953125 C 205.398438 93.5625 208.261719 83.207031 213.050781 73.390625 Z M 155.574219 86.597656 C 156.3125 87.449219 156.75 88.511719 157.332031 89.472656 C 157.957031 90.503906 158.535156 91.5625 159.132812 92.609375 C 159.710938 93.621094 160.289062 94.628906 160.867188 95.640625 C 161.46875 96.6875 162.066406 97.734375 162.664062 98.78125 C 163.242188 99.792969 163.824219 100.796875 164.40625 101.808594 C 165.003906 102.855469 165.601562 103.902344 166.199219 104.953125 C 166.769531 105.960938 167.34375 106.96875 167.824219 107.8125 C 167.046875 108.667969 166.425781 109.359375 165.683594 110.175781 C 165.234375 109.253906 164.765625 108.4375 164.429688 107.570312 C 162.582031 102.824219 160.316406 98.277344 158.015625 93.738281 C 157.023438 91.785156 156.230469 89.726562 155.355469 87.714844 C 155.207031 87.371094 154.957031 87.003906 155.574219 86.597656 Z M 24.132812 87.546875 C 24.691406 86.789062 25.332031 86.074219 26.011719 85.414062 C 38.578125 73.121094 51.160156 60.84375 63.738281 48.5625 C 67.414062 44.96875 71.0625 41.347656 74.765625 37.78125 C 76.039062 36.558594 77.414062 35.433594 78.796875 34.328125 C 80.082031 33.296875 81.933594 32.761719 83.855469 32.757812 C 85.992188 32.632812 87.789062 33.738281 89.476562 34.925781 C 100.878906 42.960938 112.25 51.039062 123.621094 59.109375 C 130.804688 64.210938 137.984375 69.320312 145.15625 74.433594 C 146.914062 75.6875 148.644531 76.976562 150.082031 78.617188 C 151.460938 80.199219 151.503906 81.363281 150.171875 82.984375 C 149.816406 83.417969 149.421875 83.820312 149.019531 84.210938 C 132.109375 100.714844 115.207031 117.222656 98.265625 133.691406 C 96.914062 135.007812 95.355469 136.140625 93.777344 137.183594 C 92.003906 138.359375 90.144531 138.363281 88.339844 137.058594 C 83.996094 133.929688 79.628906 130.835938 75.28125 127.707031 C 59.921875 116.664062 44.570312 105.617188 29.21875 94.566406 C 27.957031 93.660156 26.675781 92.773438 25.441406 91.832031 C 24.964844 91.472656 24.53125 91.03125 24.171875 90.550781 C 23.449219 89.582031 23.414062 88.523438 24.132812 87.546875 Z M 114.066406 197.902344 C 112.863281 197.054688 111.863281 196.347656 110.902344 195.667969 C 112.347656 187.285156 118.972656 167.554688 121.542969 164.0625 C 121.980469 164.363281 122.425781 164.667969 122.914062 165.003906 C 122.671875 165.550781 122.4375 166.007812 122.265625 166.488281 C 121.613281 168.316406 120.964844 170.144531 120.335938 171.980469 C 117.894531 179.09375 116.257812 186.429688 114.316406 193.683594 C 114.128906 194.382812 114.121094 195.132812 114.074219 195.859375 C 114.039062 196.449219 114.066406 197.039062 114.066406 197.902344 Z M 99.777344 188.183594 C 98.054688 187.835938 96.34375 187.488281 94.59375 187.136719 C 93.652344 184.3125 93.347656 147.773438 94.394531 145.609375 C 94.625 146.636719 94.886719 147.445312 94.980469 148.269531 C 95.359375 151.613281 95.730469 154.957031 96.027344 158.304688 C 96.578125 164.449219 97.015625 170.605469 97.617188 176.742188 C 97.902344 179.660156 98.421875 182.554688 98.914062 185.445312 C 99.070312 186.367188 99.472656 187.242188 99.777344 188.183594 Z M 22.382812 150.472656 C 18.429688 147.390625 14.519531 144.261719 10.582031 141.160156 C 10.078125 140.761719 9.53125 140.414062 9.003906 140.035156 C 6.894531 138.523438 6.148438 136.402344 6.441406 133.914062 C 6.667969 131.988281 6.914062 130.046875 7.386719 128.171875 C 9.375 120.351562 11.300781 112.507812 14.101562 104.925781 C 15.253906 101.8125 16.613281 98.773438 17.886719 95.707031 C 18.035156 95.355469 18.238281 95.027344 18.441406 94.628906 C 19.101562 94.796875 19.316406 95.074219 19.097656 95.609375 C 18.804688 96.328125 18.488281 97.042969 18.257812 97.78125 C 15.613281 106.140625 12.984375 114.503906 11.175781 123.089844 C 10.515625 126.207031 9.84375 129.339844 9.875 132.570312 C 9.894531 135.105469 10.832031 137.21875 12.722656 138.847656 C 14.8125 140.652344 17.011719 142.332031 19.152344 144.074219 C 21.695312 146.148438 24.242188 148.21875 26.765625 150.316406 C 31.609375 154.347656 36.414062 158.425781 41.289062 162.421875 C 43.890625 164.558594 46.585938 166.578125 49.261719 168.625 C 51.625 170.4375 54.007812 172.222656 56.398438 174.003906 C 60.171875 176.8125 63.957031 179.605469 67.734375 182.40625 C 68.554688 183.011719 69.375 183.621094 70.328125 184.324219 C 70.535156 175.648438 70.660156 167.164062 70.960938 158.683594 C 71.261719 150.191406 71.023438 141.675781 71.882812 133.066406 C 72.230469 133.238281 72.496094 133.332031 72.71875 133.492188 C 76.574219 136.265625 80.417969 139.058594 84.277344 141.824219 C 85.011719 142.351562 85.785156 142.839844 86.59375 143.238281 C 87.230469 143.554688 87.476562 143.953125 87.441406 144.648438 C 87.394531 145.597656 87.429688 146.550781 87.445312 147.5 C 87.644531 160.542969 87.84375 173.582031 88.042969 186.625 C 88.046875 186.925781 88.039062 187.230469 88.058594 187.53125 C 88.121094 188.472656 87.761719 189.109375 86.957031 189.6875 C 85.839844 190.484375 84.863281 191.480469 83.863281 192.429688 C 82.742188 193.496094 81.660156 194.601562 80.523438 195.722656 C 80.15625 195.472656 79.867188 195.300781 79.601562 195.09375 C 60.527344 180.222656 41.449219 165.355469 22.382812 150.472656 Z M 35.5 248.648438 C 36.039062 247.925781 36.660156 247.253906 37.308594 246.625 C 47.875 236.300781 58.457031 225.988281 69.027344 215.667969 C 69.792969 214.917969 70.527344 214.128906 71.4375 213.1875 C 70.5 213.03125 69.710938 212.894531 68.6875 212.722656 C 69.042969 212.414062 69.1875 212.183594 69.378906 212.136719 C 70.585938 211.839844 71.792969 211.457031 73.023438 211.335938 C 75.378906 211.105469 77.75 211.03125 80.113281 210.886719 C 80.269531 210.878906 80.425781 210.828125 80.753906 210.765625 C 79.359375 209.683594 77.914062 209.121094 76.167969 208.867188 C 76.460938 208.492188 76.609375 208.25 76.804688 208.058594 C 79.914062 205 83.007812 201.921875 86.15625 198.902344 C 87.371094 197.738281 88.628906 196.585938 90.003906 195.632812 C 92.765625 193.722656 95.792969 193.203125 98.761719 195.027344 C 102.03125 197.039062 105.191406 199.230469 108.320312 201.449219 C 124.386719 212.84375 140.425781 224.269531 156.46875 235.691406 C 158.226562 236.945312 159.960938 238.230469 161.386719 239.886719 C 162.703125 241.414062 162.761719 242.585938 161.511719 244.148438 C 161.132812 244.617188 160.707031 245.050781 160.273438 245.472656 C 143.332031 262.007812 126.394531 278.546875 109.417969 295.046875 C 108.097656 296.328125 106.566406 297.429688 105.019531 298.441406 C 103.230469 299.613281 101.382812 299.570312 99.582031 298.273438 C 95.171875 295.085938 90.730469 291.941406 86.3125 288.765625 C 77.613281 282.515625 68.910156 276.269531 60.242188 269.976562 C 59.378906 269.351562 58.714844 269.308594 57.808594 269.78125 C 55.003906 271.242188 52.269531 272.792969 49.777344 274.75 C 49.4375 275.019531 49.09375 275.277344 48.738281 275.527344 C 48.6875 275.5625 48.585938 275.523438 48.507812 275.519531 C 50.464844 272.414062 53.109375 270.011719 56.132812 267.988281 C 58.546875 266.375 61.050781 264.941406 63.738281 263.828125 C 64.054688 263.699219 64.359375 263.53125 64.667969 263.375 C 64.6875 263.363281 64.679688 263.300781 64.703125 263.160156 C 63.660156 263.078125 62.667969 263.332031 61.695312 263.570312 C 59.390625 264.128906 57.09375 264.738281 54.8125 265.386719 C 54.289062 265.535156 53.917969 265.472656 53.5 265.167969 C 48.496094 261.550781 43.484375 257.9375 38.476562 254.328125 C 37.984375 253.972656 37.46875 253.652344 37.003906 253.269531 C 36.503906 252.867188 35.984375 252.457031 35.582031 251.960938 C 34.667969 250.832031 34.636719 249.808594 35.5 248.648438 Z M 183.585938 285.375 C 166.007812 302.992188 148.417969 320.597656 130.855469 338.230469 C 122.804688 346.308594 114.816406 354.453125 106.78125 362.546875 C 105.542969 363.792969 103.992188 364.390625 102.210938 364.332031 C 101.355469 364.304688 100.632812 363.984375 99.960938 363.460938 C 91.570312 356.941406 83.246094 350.335938 74.746094 343.960938 C 70.523438 340.792969 66.472656 337.4375 62.417969 334.074219 C 61.523438 333.328125 60.578125 332.644531 59.664062 331.917969 C 55.875 328.914062 52.113281 325.878906 48.296875 322.910156 C 44.035156 319.597656 39.714844 316.359375 35.441406 313.058594 C 30.484375 309.230469 25.546875 305.375 20.605469 301.523438 C 19.578125 300.726562 18.53125 299.925781 18.164062 298.59375 C 17.960938 297.851562 17.734375 297.089844 17.71875 296.332031 C 17.664062 293.542969 18.265625 290.84375 18.96875 288.164062 C 20.800781 281.148438 22.503906 274.09375 25 267.273438 C 26.273438 263.789062 27.757812 260.382812 29.160156 256.949219 C 29.316406 256.5625 29.546875 256.210938 29.730469 255.867188 C 30.355469 255.996094 30.398438 256.304688 30.277344 256.757812 C 29.902344 258.132812 29.5625 259.519531 29.199219 260.894531 C 27.035156 269.074219 24.828125 277.246094 22.71875 285.441406 C 22.171875 287.566406 21.824219 289.753906 21.5625 291.9375 C 21.117188 295.636719 22.472656 298.820312 24.789062 301.613281 C 25.4375 302.398438 26.316406 303.007812 27.136719 303.636719 C 31.726562 307.160156 36.320312 310.675781 40.933594 314.171875 C 43.652344 316.230469 46.410156 318.238281 49.140625 320.28125 C 50.628906 321.394531 52.121094 322.5 53.558594 323.675781 C 56.691406 326.25 59.773438 328.890625 62.914062 331.460938 C 64.382812 332.664062 65.949219 333.746094 67.453125 334.910156 C 68.851562 335.996094 70.195312 337.152344 71.613281 338.210938 C 72.429688 338.816406 73.339844 339.296875 74.417969 339.960938 C 74.707031 337.015625 74.941406 334.394531 75.226562 331.777344 C 75.683594 327.574219 76.222656 323.375 76.640625 319.164062 C 77.027344 315.253906 77.277344 311.332031 77.625 307.417969 C 78.027344 302.816406 78.457031 298.214844 78.90625 293.617188 C 78.96875 292.949219 79.203125 292.296875 79.402344 291.457031 C 79.957031 291.839844 80.34375 292.09375 80.714844 292.363281 C 85.796875 296.027344 90.875 299.695312 95.957031 303.355469 C 96.375 303.65625 96.800781 303.976562 97.269531 304.175781 C 97.9375 304.460938 98.105469 304.921875 98.101562 305.601562 C 98.089844 307.371094 98.167969 309.144531 98.167969 310.914062 C 98.175781 324.996094 98.171875 339.082031 98.179688 353.164062 C 98.179688 354.761719 98.28125 356.359375 98.273438 357.957031 C 98.269531 358.691406 98.539062 359.207031 99.15625 359.546875 C 100.09375 360.066406 101.007812 360.667969 102.007812 361.027344 C 103.109375 361.425781 103.777344 361.027344 104.011719 359.859375 C 104.269531 358.554688 104.429688 357.214844 104.453125 355.882812 C 104.542969 351.308594 104.546875 346.730469 104.597656 342.152344 C 104.625 339.90625 104.699219 337.664062 104.722656 335.417969 C 104.761719 331.097656 104.738281 326.777344 104.816406 322.460938 C 104.902344 317.582031 105.058594 312.707031 105.214844 307.832031 C 105.238281 307.101562 105.183594 306.28125 105.992188 305.628906 C 106.527344 307.222656 106.785156 308.734375 106.855469 310.265625 C 107.171875 317.039062 107.40625 323.816406 107.761719 330.589844 C 108.003906 335.160156 108.316406 339.726562 108.75 344.28125 C 108.953125 346.421875 109.515625 348.527344 109.925781 350.644531 C 109.992188 350.976562 110.082031 351.328125 110.25 351.621094 C 110.789062 352.578125 111.449219 352.78125 112.394531 352.210938 C 113.09375 351.792969 113.761719 351.296875 114.375 350.761719 C 115.347656 349.90625 116.28125 349.007812 117.203125 348.09375 C 138.011719 327.417969 158.820312 306.738281 179.628906 286.058594 C 179.875 285.8125 180.121094 285.570312 180.363281 285.324219 C 181.207031 284.457031 181.375 283.449219 180.972656 282.332031 C 178.671875 275.957031 176.375 269.582031 173.4375 263.457031 C 171.328125 259.058594 169.273438 254.628906 167.199219 250.214844 C 166.960938 249.707031 166.726562 249.195312 166.503906 248.679688 C 166.339844 248.304688 166.386719 248.007812 166.960938 247.878906 C 167.226562 248.324219 167.515625 248.789062 167.789062 249.261719 C 172.660156 257.769531 177.53125 266.277344 182.394531 274.789062 C 183.207031 276.210938 184.066406 277.617188 184.75 279.101562 C 185.835938 281.46875 185.398438 283.558594 183.585938 285.375 Z M 186.328125 217.050781 C 185.960938 218.683594 185.789062 220.363281 185.515625 222.019531 C 185.449219 222.433594 185.3125 222.835938 185.199219 223.273438 C 183.3125 222.074219 174.882812 207.75 174.402344 204.90625 C 174.683594 205.070312 174.847656 205.136719 174.976562 205.246094 C 178.578125 208.191406 182.230469 211.074219 185.496094 214.40625 C 186.265625 215.191406 186.582031 215.933594 186.328125 217.050781 Z M 174.527344 194.523438 C 160.152344 184.1875 145.78125 173.84375 131.410156 163.503906 C 130.390625 162.773438 129.355469 162.066406 128.367188 161.300781 C 127.898438 160.933594 127.460938 160.496094 127.105469 160.015625 C 126.382812 159.046875 126.351562 157.988281 127.074219 157.011719 C 127.636719 156.253906 128.277344 155.539062 128.953125 154.878906 C 145.070312 139.113281 161.195312 123.351562 177.335938 107.609375 C 178.695312 106.285156 180.160156 105.066406 181.636719 103.871094 C 183.101562 102.691406 184.859375 102.273438 186.710938 102.21875 C 188.9375 102.109375 190.734375 103.214844 192.417969 104.402344 C 203.785156 112.410156 215.121094 120.460938 226.460938 128.511719 C 233.679688 133.632812 240.890625 138.769531 248.097656 143.910156 C 249.855469 145.164062 251.589844 146.453125 253.023438 148.097656 C 254.398438 149.671875 254.441406 150.84375 253.101562 152.460938 C 252.71875 152.925781 252.289062 153.359375 251.859375 153.78125 C 234.980469 170.25 218.105469 186.730469 201.195312 203.167969 C 199.84375 204.484375 198.285156 205.617188 196.707031 206.660156 C 194.929688 207.832031 193.074219 207.828125 191.269531 206.527344 C 185.699219 202.511719 180.105469 198.53125 174.527344 194.523438 Z M 190.835938 250.449219 C 191.011719 250.164062 191.097656 249.863281 191.296875 249.734375 C 191.976562 249.28125 192.679688 248.847656 193.414062 248.488281 C 193.996094 248.203125 194.246094 247.820312 194.226562 247.175781 C 194.1875 245.75 194.140625 244.324219 194.191406 242.902344 C 194.390625 236.988281 194.566406 231.070312 194.875 225.164062 C 195.039062 222.066406 195.457031 218.980469 195.765625 215.890625 C 195.78125 215.726562 195.828125 215.566406 195.859375 215.40625 C 195.945312 215.390625 196.03125 215.378906 196.117188 215.363281 C 196.191406 215.953125 196.265625 216.546875 196.339844 217.136719 C 196.925781 221.988281 196.964844 226.867188 197.089844 231.746094 C 197.207031 236.320312 197.351562 240.894531 197.484375 245.472656 C 197.488281 245.632812 197.519531 245.792969 197.558594 246.109375 C 201.664062 243.839844 205.675781 241.625 209.765625 239.367188 C 207.683594 242.425781 193.578125 250.730469 190.835938 250.449219 Z M 275.355469 193.5 C 254.355469 214.589844 233.359375 235.6875 212.363281 256.78125 C 207.730469 261.4375 203.117188 266.109375 198.472656 270.75 C 197.160156 272.0625 195.535156 272.691406 193.65625 272.550781 C 192.765625 272.480469 192.371094 272.292969 191.523438 271.566406 C 191.75 271.425781 191.941406 271.28125 192.152344 271.183594 C 193.582031 270.539062 194.398438 269.460938 194.464844 267.878906 C 194.519531 266.585938 194.566406 265.289062 194.539062 263.996094 C 194.449219 260.109375 194.324219 256.222656 194.21875 252.339844 C 194.214844 252.171875 194.257812 252.003906 194.292969 251.753906 C 195.289062 251.402344 196.292969 251.042969 197.472656 250.625 C 197.550781 251.359375 197.621094 251.980469 197.679688 252.601562 C 197.933594 255.175781 198.15625 257.757812 198.453125 260.328125 C 198.542969 261.089844 198.777344 261.851562 199.0625 262.566406 C 199.203125 262.921875 199.59375 263.410156 199.898438 263.429688 C 200.996094 263.503906 202.15625 263.597656 203.078125 262.753906 C 203.300781 262.546875 203.511719 262.328125 203.726562 262.117188 C 222.171875 243.785156 240.617188 225.453125 259.0625 207.121094 C 259.277344 206.90625 259.480469 206.679688 259.707031 206.480469 C 260.074219 206.15625 260.125 205.796875 260.023438 205.320312 C 258.882812 200.046875 257.761719 194.769531 256.644531 189.492188 C 256.550781 189.054688 256.527344 188.601562 256.472656 188.15625 C 256.613281 188.121094 256.75 188.085938 256.890625 188.054688 C 259.824219 192.601562 261.207031 197.832031 263.191406 202.90625 C 263.496094 202.644531 263.765625 202.441406 264 202.207031 C 266.515625 199.714844 268.992188 197.175781 271.554688 194.730469 C 272.808594 193.535156 273.222656 192.214844 272.9375 190.535156 C 272.4375 187.566406 271.464844 184.757812 270.15625 182.074219 C 267.148438 175.902344 264.054688 169.769531 261.050781 163.597656 C 260.050781 161.542969 259.210938 159.410156 258.308594 157.308594 C 258.148438 156.933594 257.84375 156.523438 258.417969 156.125 C 258.957031 156.292969 259.070312 156.851562 259.308594 157.265625 C 263.199219 164.039062 267.078125 170.828125 270.964844 177.605469 C 272.46875 180.230469 273.996094 182.835938 275.492188 185.460938 C 275.898438 186.171875 276.285156 186.90625 276.5625 187.671875 C 277.351562 189.84375 277.046875 191.804688 275.355469 193.5 Z M 279.199219 127.847656 C 279.050781 128.652344 278.863281 129.457031 278.589844 130.222656 C 278.449219 130.621094 278.082031 130.933594 277.703125 131.433594 C 277.25 130.867188 276.902344 130.496094 276.628906 130.082031 C 274.546875 126.902344 272.496094 123.703125 270.402344 120.535156 C 269.453125 119.097656 268.417969 117.710938 267.429688 116.292969 C 267.113281 115.839844 266.820312 115.367188 266.515625 114.90625 C 266.59375 114.808594 266.667969 114.714844 266.746094 114.621094 C 267.113281 114.796875 267.519531 114.921875 267.84375 115.160156 C 270.597656 117.167969 273.34375 119.191406 276.074219 121.230469 C 276.625 121.644531 277.109375 122.148438 277.597656 122.636719 C 279.046875 124.089844 279.574219 125.839844 279.199219 127.847656 Z M 267.824219 105.105469 C 252.921875 94.390625 238.027344 83.667969 223.128906 72.949219 C 222.109375 72.21875 221.085938 71.496094 220.085938 70.75 C 219.707031 70.464844 219.34375 70.148438 219.035156 69.792969 C 217.976562 68.570312 217.921875 67.4375 218.902344 66.160156 C 219.425781 65.480469 220.023438 64.847656 220.640625 64.246094 C 229.480469 55.617188 238.339844 47.003906 247.175781 38.371094 C 254.589844 31.128906 261.972656 23.851562 269.398438 16.617188 C 270.632812 15.414062 271.925781 14.238281 273.339844 13.261719 C 276.101562 11.339844 279.136719 10.867188 282.101562 12.675781 C 285.335938 14.65625 288.460938 16.828125 291.554688 19.023438 C 307.652344 30.441406 323.726562 41.894531 339.800781 53.34375 C 341.558594 54.59375 343.289062 55.886719 344.714844 57.539062 C 346.027344 59.0625 346.078125 60.238281 344.8125 61.804688 C 344.488281 62.207031 344.125 62.582031 343.757812 62.945312 C 338.164062 68.40625 332.5625 73.863281 326.964844 79.320312 C 326.78125 79.5 326.582031 79.660156 326.277344 79.933594 C 324.460938 77.984375 322.769531 76.082031 320.519531 74.773438 C 321.664062 77.050781 323.328125 79.027344 324.144531 81.476562 C 324.964844 83.933594 325.921875 86.339844 326.742188 88.796875 C 327.570312 91.277344 327.832031 93.839844 327.382812 96.515625 C 325.71875 92.390625 324.050781 88.265625 322.3125 83.960938 C 321.835938 84.382812 321.511719 84.644531 321.214844 84.933594 C 311.90625 94.011719 302.621094 103.113281 293.277344 112.152344 C 291.796875 113.585938 290.128906 114.851562 288.425781 116.019531 C 286.621094 117.257812 284.722656 117.230469 282.878906 115.902344 C 277.871094 112.289062 272.839844 108.710938 267.824219 105.105469 Z M 367.03125 102.902344 C 345.085938 124.882812 323.164062 146.882812 301.230469 168.878906 C 298.367188 171.753906 295.484375 174.613281 292.609375 177.476562 C 291.480469 178.601562 290.410156 179.792969 289.191406 180.804688 C 287.867188 181.898438 286.28125 182.296875 284.570312 181.800781 C 284.164062 181.683594 283.753906 181.492188 283.421875 181.238281 C 282.738281 180.71875 282.101562 180.132812 281.285156 179.433594 C 283.210938 178.316406 283.289062 176.339844 283.65625 174.644531 C 284.21875 172.039062 284.523438 169.359375 284.695312 166.691406 C 285.089844 160.445312 285.335938 154.191406 285.648438 147.9375 C 285.964844 141.597656 286.28125 135.257812 286.617188 128.921875 C 286.660156 128.0625 286.777344 127.203125 286.9375 126.355469 C 286.980469 126.132812 287.324219 125.808594 287.519531 125.8125 C 287.730469 125.820312 287.996094 126.125 288.125 126.359375 C 288.238281 126.570312 288.207031 126.863281 288.21875 127.121094 C 288.351562 129.964844 288.488281 132.808594 288.601562 135.65625 C 288.714844 138.414062 288.867188 141.179688 288.875 143.941406 C 288.886719 148.820312 288.710938 153.699219 288.796875 158.578125 C 288.859375 162.289062 289.164062 165.996094 289.441406 169.699219 C 289.507812 170.582031 289.820312 171.464844 290.136719 172.304688 C 290.621094 173.605469 292.609375 174.003906 293.472656 172.925781 C 293.792969 172.523438 294.207031 172.195312 294.574219 171.828125 C 315.65625 150.875 336.734375 129.917969 357.84375 108.992188 C 358.6875 108.152344 358.957031 107.398438 358.636719 106.273438 C 358.082031 104.324219 357.59375 102.351562 357.144531 100.375 C 356.90625 99.328125 356.796875 98.25 356.644531 97.183594 C 356.625 97.035156 356.695312 96.875 356.769531 96.476562 C 358.113281 97.765625 358.765625 99.261719 359.5 100.6875 C 360.222656 102.101562 360.890625 103.546875 361.679688 105.167969 C 362.8125 103.980469 363.945312 102.929688 364.894531 101.730469 C 365.234375 101.300781 365.328125 100.472656 365.191406 99.90625 C 364.824219 98.359375 364.363281 96.820312 363.777344 95.34375 C 361.601562 89.871094 358.699219 84.757812 355.960938 79.5625 C 353.6875 75.234375 351.761719 70.753906 350.046875 66.179688 C 349.980469 66 349.972656 65.796875 349.910156 65.460938 C 350.558594 65.683594 350.675781 66.164062 350.890625 66.535156 C 354.351562 72.5625 357.800781 78.601562 361.257812 84.632812 C 363.257812 88.113281 365.28125 91.582031 367.273438 95.070312 C 367.9375 96.230469 368.558594 97.417969 368.601562 98.8125 C 368.644531 100.398438 368.191406 101.738281 367.03125 102.902344 Z M 213.152344 167.539062 C 213.335938 167.230469 213.445312 166.875 213.617188 166.472656 C 211.808594 166.296875 210.152344 166.949219 208.472656 166.59375 C 213.066406 164.160156 218.160156 163.828125 223.132812 162.894531 C 220.640625 161.933594 218.042969 161.867188 215.386719 161.855469 C 215.4375 161.429688 215.476562 161.140625 215.507812 160.847656 C 215.773438 158.347656 215.542969 155.921875 214.359375 153.664062 C 212.121094 149.410156 208.449219 146.992188 203.941406 145.773438 C 200.328125 144.792969 196.832031 145.523438 193.441406 146.894531 C 190.136719 148.230469 187.175781 150.179688 184.171875 152.050781 C 182.265625 153.238281 180.363281 154.441406 178.371094 155.46875 C 177.160156 156.089844 175.816406 156.566406 174.476562 156.800781 C 170.859375 157.4375 167.726562 154.203125 168.3125 150.582031 C 168.53125 149.226562 169.148438 148.050781 169.90625 146.933594 C 170.164062 146.550781 170.414062 146.164062 170.5625 145.941406 C 170.1875 145.117188 169.824219 144.480469 169.613281 143.796875 C 169.464844 143.324219 169.683594 142.855469 170.148438 142.582031 C 170.625 142.300781 171.066406 142.433594 171.472656 142.742188 C 171.605469 142.84375 171.710938 142.992188 171.84375 143.101562 C 172.484375 143.640625 172.726562 143.648438 173.429688 143.167969 C 174.035156 142.753906 174.613281 142.289062 175.253906 141.9375 C 178.796875 139.992188 182.324219 139.917969 185.808594 142.105469 C 186.019531 142.238281 186.242188 142.339844 186.511719 142.484375 C 188.542969 140.339844 190.527344 138.242188 192.582031 136.070312 C 192.625 136.128906 192.589844 136.039062 192.523438 135.996094 C 188.082031 132.886719 183.175781 131.679688 177.894531 132.984375 C 170.394531 134.832031 165.109375 139.585938 161.550781 146.308594 C 160.039062 149.167969 159.507812 152.265625 160.183594 155.484375 C 161.535156 161.917969 168.488281 166.636719 175.027344 165.613281 C 177.621094 165.207031 180.042969 164.292969 182.304688 163.007812 C 184.628906 161.683594 186.882812 160.230469 189.175781 158.851562 C 190.804688 157.871094 192.421875 156.878906 194.089844 155.96875 C 195.535156 155.179688 197.085938 154.640625 198.738281 154.441406 C 203.734375 153.839844 207.3125 158.449219 205.449219 163.085938 C 205.320312 163.40625 205.183594 163.726562 205.011719 164.023438 C 203.058594 167.4375 200.4375 170.207031 196.945312 172.042969 C 193.207031 174.007812 189.480469 173.878906 185.859375 171.636719 C 185.609375 171.480469 185.351562 171.332031 185.011719 171.125 C 182.835938 173.238281 180.675781 175.335938 178.527344 177.421875 C 178.632812 177.578125 178.664062 177.664062 178.726562 177.714844 C 178.957031 177.910156 179.1875 178.105469 179.433594 178.277344 C 185.953125 182.824219 192.859375 183.488281 200.011719 180.046875 C 205.703125 177.3125 209.917969 172.910156 213.152344 167.539062 Z M 173.714844 139.566406 C 173.925781 139.539062 174.179688 139.875 174.597656 140.1875 C 174.140625 140.492188 173.871094 140.808594 173.644531 140.78125 C 173.421875 140.757812 173.070312 140.359375 173.089844 140.15625 C 173.113281 139.925781 173.472656 139.59375 173.714844 139.566406 Z M 171.660156 160.652344 C 172.550781 159.441406 173.164062 159.433594 174.039062 160.566406 C 173.28125 161.625 172.773438 161.65625 171.660156 160.652344 Z M 158.511719 135.664062 C 157.660156 139.480469 156.871094 143.316406 155.9375 147.113281 C 154.992188 150.941406 153.902344 154.730469 152.894531 158.472656 C 151.160156 150.402344 155.195312 139.566406 158.511719 135.664062 Z M 217.566406 167.199219 C 217.730469 167.617188 217.070312 168.167969 216.445312 168.183594 C 216.023438 168.195312 215.679688 168.0625 215.609375 167.601562 C 215.589844 167.113281 216.191406 166.605469 216.824219 166.671875 C 217.097656 166.703125 217.472656 166.957031 217.566406 167.199219 Z M 98.476562 278.785156 C 99.019531 278.300781 99.394531 277.761719 99.398438 277.011719 C 99.40625 276.402344 99.671875 275.941406 100.265625 275.609375 C 101.898438 276.453125 102.316406 274.898438 103.210938 274.136719 C 101.769531 270.691406 100.355469 267.316406 98.929688 263.910156 C 104.71875 258.328125 110.433594 252.816406 116.183594 247.265625 C 119.671875 248.828125 123.085938 250.355469 126.507812 251.890625 C 128.984375 249.515625 131.367188 247.230469 133.894531 244.800781 C 116.71875 237.652344 99.753906 230.59375 82.804688 223.542969 C 80.667969 225.746094 78.59375 227.882812 76.367188 230.179688 C 82.933594 246.9375 89.558594 263.835938 96.246094 280.898438 C 97.105469 280.082031 97.769531 279.410156 98.476562 278.785156 Z M 100.179688 240.011719 C 100.6875 239.066406 101.148438 238.214844 101.636719 237.304688 C 102.167969 237.675781 101.957031 238.140625 102.007812 238.523438 C 102.21875 240.101562 102.402344 241.683594 102.636719 243.257812 C 102.6875 243.601562 102.90625 243.917969 103.078125 244.320312 C 104.082031 243.726562 103.796875 242.648438 104.410156 241.917969 C 105.605469 242.445312 106.8125 242.976562 108.21875 243.597656 C 103.964844 247.722656 99.832031 251.726562 95.699219 255.738281 C 95.015625 254.988281 87.625 237.578125 86.4375 233.921875 C 91.152344 236.011719 95.628906 237.996094 100.179688 240.011719 Z M 95.046875 268.726562 C 95.03125 268.269531 95.4375 267.890625 95.960938 267.863281 C 96.550781 267.835938 97.148438 268.304688 97.148438 268.789062 C 97.144531 269.269531 96.628906 269.691406 96.082031 269.667969 C 95.542969 269.644531 95.0625 269.207031 95.046875 268.726562 Z M 76.089844 252.34375 C 76.015625 252.15625 76 251.914062 76.039062 251.710938 C 76.332031 250.15625 76.71875 248.632812 77.355469 247.09375 C 77.886719 248.207031 78.496094 254.230469 78.214844 255.550781 C 77.261719 254.585938 76.558594 253.542969 76.089844 252.34375 Z M 54.824219 84.386719 C 59.941406 87.371094 65.117188 90.394531 70.289062 93.414062 C 75.429688 96.414062 80.574219 99.414062 85.824219 102.324219 C 85.191406 100.820312 84.269531 99.503906 83.4375 98.136719 C 82.582031 96.734375 81.707031 95.347656 80.839844 93.953125 C 79.972656 92.558594 79.105469 91.167969 78.238281 89.773438 C 77.371094 88.378906 76.503906 86.988281 75.636719 85.59375 C 74.789062 84.234375 73.945312 82.878906 73.101562 81.523438 C 72.234375 80.128906 71.367188 78.734375 70.5 77.339844 C 69.632812 75.949219 68.765625 74.554688 67.898438 73.160156 C 67.035156 71.773438 66.175781 70.386719 65.269531 68.929688 C 67.1875 67.164062 69.015625 65.464844 70.878906 63.792969 C 71.054688 63.636719 71.4375 63.617188 71.695312 63.671875 C 72.023438 63.738281 72.324219 63.949219 72.636719 64.09375 C 83.816406 69.347656 94.992188 74.601562 106.171875 79.855469 C 106.621094 80.066406 107.085938 80.25 107.542969 80.449219 C 107.597656 80.375 107.65625 80.304688 107.710938 80.230469 C 100.089844 70.539062 92.464844 60.851562 84.734375 51.019531 C 86.566406 49.289062 88.394531 47.625 90.335938 45.839844 C 100.910156 59.367188 111.410156 72.792969 121.964844 86.285156 C 119.878906 88.460938 117.855469 90.570312 115.800781 92.707031 C 115.328125 92.496094 114.9375 92.332031 114.554688 92.144531 C 109.167969 89.5 103.789062 86.828125 98.378906 84.230469 C 97.460938 83.789062 97.09375 83.261719 97.097656 82.265625 C 97.101562 81.058594 96.957031 79.851562 96.839844 78.648438 C 96.792969 78.203125 96.632812 77.765625 96.539062 77.371094 C 95.808594 77.308594 95.769531 77.742188 95.71875 78.117188 C 95.542969 79.445312 95.316406 80.769531 95.238281 82.101562 C 95.09375 84.511719 95.042969 86.929688 94.957031 89.34375 C 94.945312 89.773438 94.957031 90.203125 94.761719 90.699219 C 94.625 90.285156 94.433594 89.882812 94.351562 89.457031 C 93.890625 87.085938 93.433594 84.714844 93.027344 82.332031 C 92.929688 81.761719 92.730469 81.414062 92.199219 81.15625 C 87.269531 78.757812 82.347656 76.332031 77.421875 73.917969 C 77.285156 73.851562 77.128906 73.816406 76.800781 73.949219 C 84.476562 85.667969 92.152344 97.386719 99.921875 109.246094 C 97.664062 111.597656 95.488281 113.863281 93.269531 116.175781 C 92.730469 115.886719 92.273438 115.652344 91.832031 115.398438 C 80.332031 108.796875 68.835938 102.1875 57.332031 95.589844 C 56.546875 95.140625 55.742188 94.714844 54.914062 94.355469 C 54.222656 94.058594 53.902344 93.601562 53.953125 92.855469 C 54.03125 91.65625 54.097656 90.453125 54.164062 89.25 C 54.175781 89.019531 54.140625 88.78125 53.90625 88.484375 C 53.164062 89.699219 52.421875 90.914062 51.589844 92.269531 C 50.632812 91.722656 49.726562 91.203125 48.765625 90.65625 C 50.402344 88.15625 52.191406 85.988281 54.824219 84.386719 Z M 44.546875 88.027344 C 46.667969 86.070312 48.78125 84.117188 50.902344 82.164062 C 51.238281 82.328125 51.472656 82.429688 51.691406 82.554688 C 53.265625 83.441406 53.339844 84.707031 51.828125 85.710938 C 50.355469 86.6875 48.84375 87.617188 47.320312 88.515625 C 46.066406 89.257812 45.847656 89.195312 44.546875 88.027344 Z M 285.054688 94.386719 C 285.25 94.242188 285.398438 94.15625 285.519531 94.042969 C 290.597656 89.164062 295.710938 84.320312 300.730469 79.386719 C 303.769531 76.398438 306.273438 72.992188 307.945312 69.03125 C 309.492188 65.363281 310.089844 61.578125 309.183594 57.640625 C 308.277344 53.710938 306.210938 50.4375 303.199219 47.851562 C 293.457031 39.492188 282.410156 37.003906 270.105469 40.957031 C 263.851562 42.964844 258.640625 46.699219 254.003906 51.28125 C 250.070312 55.171875 246.140625 59.054688 242.207031 62.945312 C 241.90625 63.242188 241.625 63.5625 241.238281 63.96875 C 243.976562 65.875 246.578125 67.652344 249.140625 69.488281 C 249.867188 70.011719 250.550781 70.136719 251.425781 69.960938 C 254.5625 69.332031 257.710938 68.765625 260.933594 68.988281 C 261.148438 69.003906 261.355469 69.082031 261.566406 69.132812 C 261.574219 69.226562 261.582031 69.320312 261.589844 69.414062 C 255.71875 70.972656 249.839844 72.515625 244.230469 74.917969 C 245.203125 74.992188 246.152344 74.996094 247.082031 74.851562 C 249.214844 74.523438 251.347656 74.15625 253.460938 73.738281 C 254.511719 73.527344 255.335938 73.742188 256.226562 74.367188 C 265.421875 80.808594 274.652344 87.207031 283.875 93.617188 C 284.261719 93.882812 284.660156 94.128906 285.054688 94.386719 Z M 271.8125 69.371094 C 270.175781 69.457031 268.539062 69.621094 266.898438 69.675781 C 266.371094 69.691406 265.742188 69.609375 265.320312 69.328125 C 261.78125 67.003906 258.285156 64.625 254.773438 62.261719 C 254.628906 62.167969 254.472656 62.09375 254.402344 62.054688 C 254.464844 61.835938 254.464844 61.785156 254.492188 61.757812 C 258.074219 58.203125 261.425781 54.390625 265.648438 51.539062 C 270.046875 48.570312 274.859375 47.054688 280.210938 47.546875 C 284.03125 47.898438 287.496094 49.277344 290.726562 51.292969 C 292.382812 52.324219 293.925781 53.503906 295.242188 54.953125 C 299.03125 59.136719 299.65625 63.984375 296.953125 68.9375 C 296.195312 70.328125 295.347656 71.734375 294.269531 72.886719 C 291.238281 76.128906 288.066406 79.242188 284.847656 82.511719 C 279.609375 78.984375 274.578125 75.597656 269.546875 72.207031 C 269.566406 72.105469 269.585938 72 269.601562 71.894531 C 272.300781 71.25 275 70.609375 277.867188 69.925781 C 275.761719 69.476562 273.800781 69.265625 271.8125 69.371094 Z M 274.757812 34.613281 C 275.109375 34.417969 275.324219 34.230469 275.566406 34.171875 C 277.535156 33.6875 279.507812 33.234375 281.480469 32.761719 C 283.371094 32.308594 285.257812 32.613281 287.144531 32.78125 C 287.3125 32.796875 287.492188 32.839844 287.640625 32.917969 C 289.707031 33.96875 291.765625 35.03125 293.828125 36.089844 C 293.792969 36.167969 293.761719 36.246094 293.730469 36.324219 C 293.496094 36.292969 293.253906 36.28125 293.019531 36.226562 C 288.203125 35.117188 283.328125 34.640625 278.382812 34.917969 C 277.234375 34.980469 276.0625 35.144531 274.757812 34.613281 Z M 274.757812 34.613281 " fill-opacity="1" fill-rule="nonzero"/><g fill="#ffffff" fill-opacity="1"><g transform="translate(306.37557, 273.167003)"><g><path d="M 1.1875 -0.828125 C 1.1875 -1.179688 1.265625 -1.445312 1.421875 -1.625 C 1.585938 -1.800781 1.816406 -1.890625 2.109375 -1.890625 C 2.410156 -1.890625 2.644531 -1.800781 2.8125 -1.625 C 2.988281 -1.445312 3.078125 -1.179688 3.078125 -0.828125 C 3.078125 -0.492188 2.988281 -0.234375 2.8125 -0.046875 C 2.644531 0.140625 2.410156 0.234375 2.109375 0.234375 C 1.847656 0.234375 1.628906 0.148438 1.453125 -0.015625 C 1.273438 -0.179688 1.1875 -0.453125 1.1875 -0.828125 Z M 1.1875 -0.828125 "/></g></g></g></svg>